Coordinates
version=1
nRows=18
nColumns=32
inDegrees=yes

Units are S.I. units (second, meters, Newtons, ...)
If the header above contains a line with 'inDegrees', this indicates whether rotational values are in degrees (yes) or radians (no).

endheader
time	pelvis_tilt	pelvis_list	pelvis_rotation	pelvis_tx	pelvis_ty	pelvis_tz	hip_flexion_r	hip_adduction_r	hip_rotation_r	knee_angle_r	knee_adduction_r	med_cond_adduction_r	lat_cond_adduction_r	patella_r_constrained_knee_angle	ankle_angle_r	subtalar_angle_r	mtp_angle_r	hip_flexion_l	hip_adduction_l	hip_rotation_l	knee_angle_l	knee_adduction_l	med_cond_adduction_l	lat_cond_adduction_l	patella_l_constrained_knee_angle	ankle_angle_l	subtalar_angle_l	mtp_angle_l	lumbar_extension	lumbar_bending	lumbar_rotation
      0.62000000	      2.69394910	     -6.06302326	     -4.23596563	      0.11743498	      0.92422025	      0.27146375	    -19.67360393	      4.31878101	     -6.70554686	     -0.17080963	      4.44614348	     -0.00000000	     -0.00000000	     -0.00298119	      2.85407704	      0.08303893	      0.00000000	     26.22201488	    -13.81537926	    -22.01040746	    -16.48565623	     -1.10690756	     -0.00000000	      0.00000000	     -0.28772898	      0.63587105	     13.29085821	      0.00000000	     -5.21359377	      6.88998133	     -3.57845005
      0.62500000	      2.47945425	     -6.35472753	     -4.23291428	      0.12369743	      0.92264698	      0.27081480	    -19.78588648	      4.54390031	     -6.84150720	     -0.41584786	      4.41983374	     -0.00000000	     -0.00000000	     -0.00725791	      3.05654542	      0.55467053	      0.00000000	     26.47201425	    -13.94298086	    -21.83045140	    -15.04722797	     -0.97214456	      0.00000000	      0.00000000	     -0.26262367	      0.35727196	     13.85948765	     -0.00000000	     -5.09157278	      7.10551773	     -3.87790800
      0.63000000	      2.29531638	     -6.65204641	     -4.37319015	      0.12999269	      0.92121260	      0.27047916	    -19.98990289	      4.77156276	     -6.62796122	     -0.51416146	      4.34235112	      0.00000000	      0.00000000	     -0.00897381	      3.09394839	      0.64767708	     -0.00000000	     26.60252342	    -14.19186513	    -21.74889236	    -13.66008753	     -0.73455500	     -0.00000000	     -0.00000000	     -0.23841350	      0.06776420	     14.30934684	     -0.00000000	     -5.01550121	      7.32952801	     -3.97139533
      0.63500000	      2.23953576	     -6.94723519	     -4.95984679	      0.13637215	      0.92013212	      0.27151702	    -20.14239274	      4.96136936	     -6.26125554	     -1.04148668	      4.05376173	      0.00000000	      0.00000000	     -0.01817737	      3.48767365	      1.27813859	      0.00000000	     26.47138431	    -14.95466233	    -22.43747169	    -12.63831879	     -0.17150134	     -0.00000000	     -0.00000000	     -0.22058027	      0.00071626	     15.17777540	      0.00000000	     -5.13819417	      8.09934934	     -2.38760416
      0.64000000	      1.97365097	     -7.13906487	     -4.46248932	      0.14294120	      0.91832568	      0.26920022	    -20.26302601	      5.04876988	     -6.85609428	     -1.16401466	      4.26385439	     -0.00000000	     -0.00000000	     -0.02031589	      3.48350761	      1.69908960	      0.00000000	     26.85335185	    -14.46262790	    -21.39125150	    -11.18435259	     -0.32231761	     -0.00000000	     -0.00000000	     -0.19520378	     -0.45274896	     14.98660992	      0.00000000	     -4.84018637	      7.82828958	     -4.13813131
      0.64500000	      1.86567275	     -7.28383521	     -4.62572761	      0.14958656	      0.91705991	      0.26879491	    -20.51040014	      5.05277454	     -6.72051642	     -1.36862611	      4.22976061	     -0.00000000	     -0.00000000	     -0.02388703	      3.55825089	      1.94957695	      0.00000000	     26.83372602	    -14.60148020	    -21.39546515	    -10.08147351	     -0.05159845	      0.00000000	      0.00000000	     -0.17595491	     -0.70577995	     15.23623225	      0.00000000	     -4.81279804	      7.82176210	     -4.26647861
      0.65000000	      1.82798213	     -7.37071234	     -4.81169380	      0.15636036	      0.91597211	      0.26836970	    -20.74613845	      4.94665997	     -6.75489712	     -1.76016265	      4.19230253	      0.00000000	      0.00000000	     -0.03072063	      3.67935846	      2.50362880	      0.00000000	     26.67810656	    -14.66958424	    -21.40429185	     -9.00809644	      0.19455707	     -0.00000000	     -0.00000000	     -0.15722094	     -0.95060054	     15.35558999	     -0.00000000	     -4.84213093	      7.91823208	     -4.09198435
      0.65500000	      1.72240101	     -7.57546592	     -4.95850977	      0.16317413	      0.91473266	      0.26780857	    -20.98485998	      5.01559121	     -6.57804832	     -1.99416025	      4.11811703	     -0.00000000	      0.00000000	     -0.03480466	      3.62129737	      2.70306403	     -0.00000000	     26.72409112	    -14.90987642	    -21.36065957	     -8.30530794	      0.46752061	     -0.00000000	     -0.00000000	     -0.14495497	     -1.02922028	     15.53618504	     -0.00000000	     -4.79264936	      8.02895082	     -4.21922116
      0.66000000	      1.75561659	     -7.55254435	     -5.39350772	      0.17017604	      0.91394756	      0.26797210	    -21.38416406	      4.76581802	     -6.10326171	     -2.17661042	      4.02856508	      0.00000000	      0.00000000	     -0.03798902	      3.50069986	      2.77605754	      0.00000000	     26.35949804	    -15.08403254	    -21.70783312	     -7.49230601	      0.83389518	     -0.00000000	     -0.00000000	     -0.13076541	     -1.20176495	     15.52881144	     -0.00000000	     -4.91004872	      7.80715153	     -3.96800779
      0.66500000	      1.72540897	     -7.58525074	     -5.55995827	      0.17726534	      0.91289779	      0.26742941	    -21.57109039	      4.59479921	     -6.20123748	     -2.68717400	      3.96318854	     -0.00000000	     -0.00000000	     -0.04690003	      3.61314701	      3.37423948	      0.00000000	     26.32322555	    -15.17246668	    -21.85583668	     -7.11188096	      1.02606943	     -0.00000000	     -0.00000000	     -0.12412574	     -1.17451787	     15.76892300	      0.00000000	     -4.89115217	      8.14766428	     -3.29197652
      0.67000000	      1.75686509	     -7.54077473	     -5.64143567	      0.18441597	      0.91198166	      0.26642053	    -21.87561680	      4.29228303	     -6.23093841	     -3.06579362	      4.01696243	      0.00000000	      0.00000000	     -0.05350819	      3.56280540	      3.75003768	      0.00000000	     26.16465085	    -15.01834213	    -21.77207068	     -6.63385228	      1.11961757	      0.00000000	      0.00000000	     -0.11578256	     -1.27442189	     15.55862040	      0.00000000	     -4.94492858	      7.70006601	     -3.95813014
      0.67500000	      1.74798518	     -7.54010782	     -5.89575967	      0.19166733	      0.91110264	      0.26601822	    -22.15490530	      4.08386088	     -5.96614003	     -3.40262087	      3.93843265	     -0.00000000	     -0.00000000	     -0.05938694	      3.38928378	      3.82678435	      0.00000000	     26.04305332	    -15.13279002	    -21.91512047	     -6.46977648	      1.33023473	      0.00000000	      0.00000000	     -0.11291890	     -1.25396001	     15.46160548	     -0.00000000	     -4.95588727	      7.55020694	     -3.90000481
      0.68000000	      1.81119837	     -7.34401815	     -6.21227247	      0.19909953	      0.91039364	      0.26579234	    -22.36205733	      3.60492151	     -6.00891186	     -4.03259629	      3.85509110	      0.00000000	      0.00000000	     -0.07038208	      3.41414943	      4.48264924	     -0.00000000	     25.83086163	    -15.08103730	    -22.37724328	     -6.48145785	      1.45715095	     -0.00000000	     -0.00000000	     -0.11312278	     -1.19491098	     15.57195963	     -0.00000000	     -5.00733885	      7.65059223	     -2.93816623
      0.68500000	      1.92807527	     -7.20151581	     -6.49289075	      0.20643819	      0.90988239	      0.26527318	    -22.74376574	      3.19466817	     -5.63388226	     -4.36484659	      3.80571624	     -0.00000000	     -0.00000000	     -0.07618094	      3.14343668	      4.42369641	     -0.00000000	     25.46786677	    -14.94218986	    -22.43767774	     -6.31569237	      1.52000319	      0.00000000	      0.00000000	     -0.11022963	     -1.31492088	     15.09290569	      0.00000000	     -5.14038697	      7.04707905	     -3.28529646
      0.69000000	      1.99758403	     -6.98084337	     -6.66758480	      0.21399740	      0.90922133	      0.26454523	    -22.97718478	      2.70586347	     -5.64624078	     -4.92414479	      3.77652594	      0.00000000	      0.00000000	     -0.08594254	      2.98161203	      4.73966675	      0.00000000	     25.30556682	    -14.71690812	    -22.61984233	     -6.51821352	      1.51111727	      0.00000000	      0.00000000	     -0.11376429	     -1.31201702	     14.87074562	      0.00000000	     -5.16692851	      6.70407302	     -3.20431139
      0.69500000	      2.11990448	     -6.73144105	     -6.96293730	      0.22158815	      0.90878030	      0.26414448	    -23.23767633	      2.17479879	     -5.48816672	     -5.49711257	      3.69062966	     -0.00000000	     -0.00000000	     -0.09594271	      2.73124855	      4.96105367	      0.00000000	     25.00778852	    -14.53170807	    -22.90238363	     -6.76718952	      1.51784934	     -0.00000000	     -0.00000000	     -0.11810974	     -1.36154411	     14.57813578	     -0.00000000	     -5.25420507	      6.33407011	     -2.90516447
      0.70000000	      2.25978109	     -6.41289379	     -7.27556897	      0.22926272	      0.90840716	      0.26384898	    -23.42232483	      1.56604655	     -5.46180918	     -6.25120742	      3.56409555	      0.00000000	      0.00000000	     -0.10910415	      2.57698610	      5.38856460	      0.00000000	     24.70138943	    -14.29388531	    -23.28619869	     -7.13587141	      1.49093770	     -0.00000000	     -0.00000000	     -0.12454445	     -1.48753553	     14.29958839	     -0.00000000	     -5.34251452	      6.04352713	     -2.23995453
      0.70500000	      2.38327299	     -6.14118111	     -7.64588129	      0.23697648	      0.90809745	      0.26372175	    -23.62540409	      1.02982292	     -5.21100284	     -6.88712224	      3.39367662	      0.00000000	      0.00000000	     -0.12020296	      2.18462024	      5.55051363	     -0.00000000	     24.43938870	    -14.18992212	    -23.73775324	     -7.71780243	      1.49702858	     -0.00000000	     -0.00000000	     -0.13470106	     -1.54163696	     14.05938787	     -0.00000000	     -5.42237597	      5.83917320	     -1.46483587
